<?xml version="1.0" standalone="no"?>
<!DOCTYPE svg PUBLIC "-//W3C//DTD SVG 1.1//EN" "http://www.w3.org/Graphics/SVG/1.1/DTD/svg11.dtd" >
<svg xmlns="http://www.w3.org/2000/svg">
<metadata>
Created by FontForge 20120731 at Thu Jul 20 10:29:09 2017
 By admin
</metadata>
<defs>
<font id="iconfont" horiz-adv-x="1024" >
  <font-face 
    font-family="iconfont"
    font-weight="500"
    font-stretch="normal"
    units-per-em="1024"
    panose-1="2 0 6 3 0 0 0 0 0 0"
    ascent="896"
    descent="-128"
    x-height="792"
    bbox="-0.816667 -201 1454 896.41"
    underline-thickness="0"
    underline-position="0"
    unicode-range="U+0078-E72A"
  />
<missing-glyph 
 />
    <glyph glyph-name=".notdef" 
 />
    <glyph glyph-name=".notdef" 
 />
    <glyph glyph-name=".null" horiz-adv-x="0" 
 />
    <glyph glyph-name="nonmarkingreturn" horiz-adv-x="341" 
 />
    <glyph glyph-name="x" unicode="x" horiz-adv-x="1001" 
d="M281 543q-27 -1 -53 -1h-83q-18 0 -36.5 -6t-32.5 -18.5t-23 -32t-9 -45.5v-76h912v41q0 16 -0.5 30t-0.5 18q0 13 -5 29t-17 29.5t-31.5 22.5t-49.5 9h-133v-97h-438v97zM955 310v-52q0 -23 0.5 -52t0.5 -58t-10.5 -47.5t-26 -30t-33 -16t-31.5 -4.5q-14 -1 -29.5 -0.5
t-29.5 0.5h-32l-45 128h-439l-44 -128h-29h-34q-20 0 -45 1q-25 0 -41 9.5t-25.5 23t-13.5 29.5t-4 30v167h911zM163 247q-12 0 -21 -8.5t-9 -21.5t9 -21.5t21 -8.5q13 0 22 8.5t9 21.5t-9 21.5t-22 8.5zM316 123q-8 -26 -14 -48q-5 -19 -10.5 -37t-7.5 -25t-3 -15t1 -14.5
t9.5 -10.5t21.5 -4h37h67h81h80h64h36q23 0 34 12t2 38q-5 13 -9.5 30.5t-9.5 34.5q-5 19 -11 39h-368zM336 498v228q0 11 2.5 23t10 21.5t20.5 15.5t34 6h188q31 0 51.5 -14.5t20.5 -52.5v-227h-327z" />
    <glyph glyph-name="meifa" unicode="&#xe600;" 
d="M930 53q19 12 36 7t29.5 -18.5t19.5 -33.5t7 -40.5t-7.5 -38t-24.5 -25.5q-2 -8 -28 -16q-23 -6 -72 -11t-140 -4q-7 -1 -27.5 -0.5t-47 5t-55.5 15.5t-52.5 30t-38 48.5t-11.5 72.5q-3 15 -9.5 31.5t-6 38.5t14 51.5t53.5 68.5q16 26 12 46q-3 17 -24 30.5t-77 13.5
q-58 4 -94 27q-15 10 -28 25t-18 37.5t-1.5 52.5t20.5 69q6 34 -6 59q-5 10 -13 19t-21.5 14.5t-33 6.5t-46.5 -5q2 -11 2 -24q0 -11 -1 -28.5t-7 -39.5q-6 -24 -10.5 -41t-12 -30t-21.5 -25.5t-39 -26.5q1 -3 4 -7q5 -8 14 -13q11 -5 26 -9t18 -12q2 -4 0 -9.5t-4.5 -11
t-4.5 -10.5t-1 -8q2 -6 6 -7t4 -3q-1 0 -2 -1q-2 -2 -3 -5q-3 -6 -1.5 -9t3.5 -5t5 -4.5t3 -7.5q-5 -23 -2 -41q2 -15 12 -29.5t33 -16.5h174q26 -49 36 -102q4 -22 4.5 -46.5t-4.5 -50.5t-17 -52t-33 -50q-32 -19 -70 -26q-33 -6 -76.5 -3t-94.5 29q-20 -15 -38 -14
q-15 0 -29.5 15t-22.5 58q-25 27 -30 50q-2 11 0.5 21t13 19t29 17.5t48.5 13.5q25 16 29 35q4 16 -13 37.5t-77 48.5q-58 36 -79 85q-9 20 -10.5 45.5t10 56.5t37.5 67t73 76q11 8 18 20q6 11 10.5 28t1.5 42q-28 52 -30 99q-1 19 3.5 40t18 40t37 34.5t61.5 25.5
q26 19 53 26q23 6 49.5 3t47.5 -29q55 22 110 28q22 3 47 2t50.5 -7t48.5 -18.5t43 -33.5q64 -4 112 -42q20 -17 39 -43t33.5 -64.5t21.5 -90.5t4 -121q68 -66 98 -131q14 -28 20 -58t0.5 -59.5t-26.5 -58.5t-62 -53q-27 -3 -46 -15q-18 -9 -32 -27t-12 -48q-1 -18 4 -30
q5 -11 17 -20.5t39 -10.5q6 7 9 12q2 6 1 10.5t-10 8.5q-5 14 -3 26q1 12 8 21t25 12q-1 0 0.5 0.5t-0.5 -0.5z" />
    <glyph glyph-name="kafei" unicode="&#xe62c;" 
d="M435 527l5.5 23.5t6 42t-7.5 46.5q-3 8 -7 9t-4 -4q-1 -3 1 -10q7 -28 5.5 -46t-5.5 -39t-4 -27q1 -26 10 -44.5t18 -23.5l8 -5q-3 4 -8 12t-12.5 28.5t-5.5 37.5zM477 472l4.5 20t5 36t-5.5 40q-4 10 -9 8q-3 -2 0 -12q5 -24 4 -39.5t-4.5 -34t-3.5 -23.5q1 -22 9 -37.5
t15 -20.5l7 -4q-3 3 -7 9.5t-10.5 24.5t-4.5 33zM522 447l3 13.5t3.5 24.5t-4.5 28q-1 3 -4 5q-2 2 -3 -2q0 -2 1 -6q4 -16 3 -27t-3.5 -23.5t-1.5 -15.5q0 -16 5.5 -26.5t10.5 -13.5l5 -4l-5 7.5t-7.5 16.5t-2.5 23zM775 350q-16 5 -25 8q-10 2 -22 4q-9 1 -16 1v0h-439
q-22 0 -38 -17t-15 -39q1 -103 24 -166.5t66 -122.5h-113h-35q0 -27 16.5 -48t44.5 -21h144h245h143q32 0 49 22t17 46q-15 1 -35 1h-117q19 28 32 51l20 -5q36 -8 73.5 10t45.5 54l19 95q10 46 -19 81t-65 46zM352 55l-4 -2q-14 -5 -29 20q-24 41 -39 89q-6 22 -10 46.5
t-5 38.5l-1 14q-2 29 13 33l5 2q8 3 16.5 -3t9.5 -18q2 -49 17 -98q6 -22 15.5 -44.5t16.5 -33.5l6 -12q5 -11 2 -19.5t-13 -12.5zM805 213l-12 -56q-4 -21 -24.5 -31.5t-42.5 -7.5q31 72 38 167q19 -8 32.5 -27.5t8.5 -44.5z" />
    <glyph glyph-name="dujia" unicode="&#xe62b;" 
d="M951 71h-614q-19 0 -37 11.5t-28 30.5l-147 286q-13 24 -38.5 32.5t-50 -4t-32.5 -38.5t4 -50l148 -286q34 -66 102 -95l-73 -63q-17 -15 -18.5 -37.5t12.5 -39.5q17 -19 42 -19q20 0 35 13l150 129h343l150 -129q15 -13 35 -13q26 0 42 19q15 17 13 39.5t-19 37.5
l-53 46h34q27 0 46.5 19t19.5 46t-19.5 46t-46.5 19zM951 -30h-113l113 -97q8 -7 9 -17.5t-6 -18.5q-8 -9 -20 -9q-9 0 -16 6l-158 136h-365l-158 -136q-7 -6 -16 -6q-12 0 -20 9q-7 8 -6 18.5t9 17.5l108 93l-42 18q-59 26 -88 83l-148 285q-7 14 -2.5 28.5t18.5 21.5
q8 4 16 4q23 0 33 -20l147 -286q14 -26 39 -42t52 -16h614q15 0 26 -10.5t11 -25.5t-11 -25.5t-26 -10.5zM300 122q14 -25 38 -25h557v0q18 0 30.5 12.5t12.5 30.5t-12.5 31.5t-30.5 13.5l-531 1l-91 170q-8 16 -25.5 21t-33.5 -3.5t-21 -26t3 -33.5zM228 348q3 2 7 2
q9 0 13 -8l99 -185l548 -1q6 0 10 -5t4 -11t-4 -10t-10 -4h-557q-7 0 -13 10l-103 192q-7 13 6 20zM936 504l74 40q10 6 10 17t-10 16l-74 41q10 -28 10 -58q0 -28 -10 -56zM979 561l-4 -3v2v3zM843 710l-41 74q-5 10 -16 10t-16 -10l-41 -74q28 11 57 11t57 -11zM786 754
l2 -4h-2h-2zM729 411l41 -74q5 -10 16.5 -10t16.5 10l40 74q-27 -11 -57 -11q-29 0 -57 11zM789 371l-3 -4l-2 4h2v0h3zM563 544l74 -41q-11 28 -11 57t11 57l-75 -40q-9 -6 -9 -17t10 -16zM597 562v-2v-2l-4 2zM786 454q44 0 75.5 31t31.5 75.5t-31.5 75.5t-75.5 31
t-75 -31t-31 -75.5t31 -75.5t75 -31zM786 638q32 0 55 -22.5t23 -55t-23 -55t-55 -22.5t-54.5 22.5t-22.5 55t22.5 55t54.5 22.5z" />
    <glyph glyph-name="dianhua" unicode="&#xe623;" 
d="M445 232q106 -106 135 -77q2 2 5 6q15 15 23.5 21t23 10t33 -4.5t43.5 -28.5q14 -11 22 -21.5t12 -19t2.5 -19t-3.5 -16.5t-9.5 -16t-11.5 -14l-14 -14t-13 -12q-31 -32 -125 3.5t-191.5 132.5t-133.5 191t-5 125q3 3 12.5 13t14 14.5t14 12t15.5 9.5t16.5 3.5t19 -2.5
t19 -12t21.5 -22q21 -25 29.5 -43.5t4.5 -33.5t-10 -23t-21 -23q-4 -4 -5 -6q-29 -28 77 -134v0zM520 477q-16 2 -27 -9q-8 -8 -8 -20.5t8 -21.5q4 -3 8 -5.5t7 -2.5l2 -1q48 -8 79.5 -40t40.5 -79q1 -10 8 -17q9 -9 21.5 -9t20.5 9q5 5 7.5 11.5t1.5 10.5v4
q-10 65 -57 112.5t-112 57.5v0zM666 453q41 -41 59.5 -86.5t12.5 -85.5q-2 -17 8 -28q10 -8 22 -8t21 8q3 4 5.5 8.5t2.5 7.5l1 4q6 44 -12.5 104t-77 119t-118.5 77.5t-105 12.5q-12 -2 -19 -9q-8 -9 -8.5 -21t8.5 -22q5 -4 12 -6t11 -2h4q40 6 85.5 -12.5t87.5 -60.5v0z
M666 453z" />
    <glyph glyph-name="gouwu" unicode="&#xe608;" 
d="M511 780q97 0 185.5 -38t152.5 -102t102 -152.5t38 -186t-38 -186t-102 -152.5t-152.5 -102t-186 -38t-186 38t-152.5 102t-102 152.5t-38 186t38 186t102 152.5t152.5 102t186.5 38v0zM667 44q-23 0 -38.5 -15t-15.5 -37.5t15.5 -38t38 -15.5t38 15.5t15.5 38
t-15.5 37.5t-37.5 15v0zM376 44q-22 0 -36.5 -14.5t-14.5 -37t14.5 -38t36.5 -15.5t38 15.5t16 37.5t-15.5 37t-38.5 15v0zM850 255v184q0 2 -0.5 5.5t-3.5 13t-8 17t-15 13.5t-23 6l-504 -1l-11 27q0 3 -1.5 8.5t-6 19.5t-11 24.5t-19 19.5t-27.5 9l-23 -5q-43 -17 -43 -75
h55q67 -386 67 -397q0 -14 8.5 -33.5t18.5 -19.5h495q10 0 18 13.5t8 26t-8 26t-18 13.5h-459l-13 53l473 2q37 0 48 30q3 9 3 20v0zM378 282v26q0 11 -7.5 19t-18.5 8h-1q-11 0 -18.5 -8t-7.5 -19v-26q0 -11 7.5 -18.5t18.5 -7.5h1q11 0 18.5 7.5t7.5 18.5v0zM378 388v26
q0 11 -7.5 19t-18.5 8h-26q-11 0 -19 -8t-8 -19v-26q0 -11 8 -19t19 -8h26q11 0 18.5 8t7.5 19v0zM483 282v26q0 11 -7.5 19t-18.5 8h-27q-10 0 -18 -8t-8 -19v-26q0 -11 8 -18.5t18 -7.5h27q11 0 18.5 7.5t7.5 18.5v0zM483 388v26q0 11 -7.5 19t-18.5 8h-27q-10 0 -18 -8
t-8 -19v-26q0 -11 8 -19t18 -8h27q11 0 18.5 8t7.5 19v0zM588 282v26q0 11 -8 19t-18 8h-27q-10 0 -18 -8t-8 -19v-26q0 -11 8 -18.5t18 -7.5h27q10 0 18 7.5t8 18.5v0zM588 388v26q0 11 -8 19t-18 8h-27q-10 0 -18 -8t-8 -19v-26q0 -11 8 -19t18 -8h27q10 0 18 8t8 19v0z
M693 282v26q0 11 -8 19t-18 8h-27q-11 0 -18.5 -8t-7.5 -19v-26q0 -11 7.5 -18.5t18.5 -7.5h27q10 0 18 7.5t8 18.5v0zM693 388v26q0 11 -8 19t-18 8h-27q-11 0 -18.5 -8t-7.5 -19v-26q0 -11 7.5 -19t18.5 -8h27q10 0 18 8t8 19v0zM798 282v26q0 11 -8 19t-18 8h-27
q-11 0 -18.5 -8t-7.5 -19v-26q0 -11 7.5 -18.5t18.5 -7.5h27q10 0 18 7.5t8 18.5v0zM798 388v26q0 11 -8 19t-18 8h-27q-11 0 -18.5 -8t-7.5 -19v-26q0 -11 7.5 -19t18.5 -8h27q10 0 18 8t8 19z" />
    <glyph glyph-name="ditu" unicode="&#xe60d;" 
d="M715 337l-204 -387l-202 387l203 -36zM736 431.5q0 -92.5 -65.5 -158t-158.5 -65.5q-78 0 -138.5 48t-78.5 122q-7 26 -7 54q0 92 65.5 157.5t158.5 65.5t158.5 -65.5t65.5 -158zM512 570q-54 0 -91.5 -38t-37.5 -91.5t37.5 -91.5t91.5 -38t91.5 38t37.5 91.5t-37.5 91.5
t-91.5 38zM715 337l-204 -387l-202 387l203 -36zM736 431.5q0 -92.5 -65.5 -158t-158.5 -65.5q-78 0 -138.5 48t-78.5 122q-7 26 -7 54q0 92 65.5 157.5t158.5 65.5t158.5 -65.5t65.5 -158zM512 570q-54 0 -91.5 -38t-37.5 -91.5t37.5 -91.5t91.5 -38t91.5 38t37.5 91.5
t-37.5 91.5t-91.5 38z" />
    <glyph glyph-name="jiudian" unicode="&#xe68a;" 
d="M61 -153h451v903h-451v-903v0zM339 638h113v-113h-113v113v0zM339 411h113v-112h-113v112v0zM339 187h113v-113h-113v113v0zM117 638h113v-113h-113v113v0zM117 411h113v-112h-113v112v0zM117 187h113v-113h-113v113v0zM568 464h395v-52h-395v52v0zM568 -153h113v198h170
v-198h112v503h-395v-503zM568 -153z" />
    <glyph glyph-name="xuexi3" unicode="&#xe602;" 
d="M932 411v-146l36 -40l-68 -58l-61 58l37 41v121q-169 -69 -298 -126q-32 -15 -59.5 -15.5t-60.5 11.5q-229 86 -346 141q-52 25 -52.5 42.5t54.5 38.5q49 19 170 65.5t164 62.5q31 12 45.5 16.5t35 3.5t43.5 -12q40 -16 174 -69.5t182 -73.5q24 -10 35 -18t8.5 -14.5
t-6.5 -10.5t-16.5 -10t-16.5 -8v0v0zM588 200q24 10 86 38.5t98 43.5v-241q-4 -3 -11 -9.5t-31.5 -23.5t-52 -29.5t-70.5 -23t-88 -10.5q-48 0 -94 10.5t-74.5 23t-54 29t-33 23.5t-11.5 10v0v225q26 -10 190 -66q38 -13 75 -14t71 14v0v0zM588 200z" />
    <glyph glyph-name="yanzhengma" unicode="&#xe64c;" 
d="M526 133v30h56q11 0 11 11v34q0 11 -11 11h-44v33h22q4 0 7.5 4t3.5 8v11q0 4 -3.5 7.5t-7.5 3.5h-34v112q46 12 79 53.5t33 88.5q0 57 -41 97.5t-98.5 40.5t-98.5 -40.5t-41 -97.5q0 -47 33 -88.5t78 -53.5v-258q0 -15 7.5 -27t20.5 -11q9 1 16 9t10 15zM414 540.5
q0 34.5 24.5 59t59.5 24.5t60 -24.5t25 -59t-25 -59t-60 -24.5t-59.5 24.5t-24.5 59z" />
    <glyph glyph-name="ditu1" unicode="&#xe603;" 
d="M535 26q-9 -11 -23 -11v0q-14 0 -23 11q-34 46 -65 92t-63 110.5t-32 100.5q0 76 53.5 129.5t129.5 53.5t129.5 -53.5t53.5 -129.5q0 -36 -32 -100.5t-63.5 -111t-64.5 -91.5zM513 479q-62 0 -105.5 -44t-43.5 -106q0 -33 36.5 -102t100.5 -158q4 -6 12 -6t12 6
q64 88 101 157.5t37 102.5q0 62 -44.5 106t-105.5 44zM435 340.5q0 32.5 23 55t55 22.5t55 -22.5t23 -55t-23 -55t-55 -22.5t-55 22.5t-23 55zM557 340.5q0 18.5 -13 31t-31 12.5t-31 -12.5t-13 -31t13 -31.5t31 -13t31 13t13 31.5z" />
    <glyph glyph-name="dianying" unicode="&#xe60f;" 
d="M835 -26h-157q89 46 142.5 134t53.5 194q0 100 -48.5 185.5t-132 135t-181.5 49.5t-181.5 -49.5t-132 -135t-48.5 -185.5q0 -98 46 -181.5t126.5 -133.5t175.5 -54h3h334q9 0 15 6t6 14.5t-6 14.5t-15 6zM699 377q31 0 53 -22t22 -53t-22 -53t-53 -22t-52.5 22t-21.5 53
t21.5 53t52.5 22zM512 557q31 0 53 -22t22 -53t-22 -52.5t-53 -21.5t-53 21.5t-22 52.5t22 53t53 22zM328 229q-31 0 -53 21.5t-22 52.5t22 53t53 22t53 -22t22 -53t-22 -52.5t-53 -21.5zM436 105q0 31 22 53t53 22t52.5 -22t21.5 -53t-21.5 -53t-52.5 -22t-53 22t-22 53z
" />
    <glyph glyph-name="jianshen" unicode="&#xe65a;" 
d="M951 303q-1 0 -3.5 0.5t-3.5 0.5v-163q0 -15 -10.5 -20.5t-30.5 -5.5t-30.5 5.5t-10.5 20.5v488q0 16 10.5 21t30.5 5t30.5 -5t10.5 -21v-180h3.5h3.5q30 0 51.5 -21t21.5 -51.5t-21.5 -52t-51.5 -21.5v0zM739 -28q-40 0 -61 10t-21 42v723q0 31 21 41.5t61 10.5
t61 -10.5t21 -41.5v-723q0 -32 -21 -42t-61 -10v0zM412 303v164h204v-164h-204v0zM288 -28q-40 0 -61 10t-21 42v723q0 31 21 41.5t61 10.5t60.5 -10.5t20.5 -41.5v-723q0 -32 -20.5 -42t-60.5 -10v0zM124 115q-20 0 -30.5 5.5t-10.5 20.5v163l-2.5 -0.5t-3.5 -0.5
q-31 0 -52.5 21.5t-21.5 52t21.5 51.5t52.5 21h3h3v180q0 16 10.5 21t30.5 5t29.5 -5t9.5 -21v-488q0 -15 -9.5 -20.5t-29.5 -5.5v0zM124 115z" />
    <glyph glyph-name="meishi" unicode="&#xe657;" 
d="M729 776q-58 0 -99 -49.5t-41 -119t41 -118.5t99 -49t99 49t41 118.5t-41 119t-99 49.5zM350.5 831q-11.5 0 -20 -8.5t-8.5 -19.5v-56v-28v-105q0 -29 -15.5 -52t-39.5 -33v274q0 11 -8.5 19.5t-20 8.5t-19.5 -8.5t-8 -19.5v-274q-25 10 -40.5 33t-15.5 52v105v28v56
q0 11 -8.5 19.5t-20 8.5t-19.5 -8.5t-8 -19.5v-56v-28v-112q0 -50 31.5 -88.5t80.5 -47.5v-506q0 -11 8 -19.5t19.5 -8.5t20 8.5t8.5 19.5v506q48 9 79.5 47.5t31.5 88.5v112v28v56q0 11 -8 19.5t-19.5 8.5zM925 608q0 93 -57.5 158.5t-138.5 65.5t-138.5 -65.5
t-57.5 -158.5q0 -84 48.5 -147t120.5 -75l-0.5 -1l-0.5 -1v-420q0 -11 8.5 -19.5t20 -8.5t19.5 8.5t8 19.5v420v1v1q71 12 119.5 75t48.5 147z" />
    <glyph glyph-name="icon" unicode="&#xe626;" 
d="M414 290q92 -92 163 -138q76 -49 109 -60q18 -6 30.5 -7t21.5 3t14 8.5t12 14.5q34 46 42 65q5 8 4.5 18.5t-11.5 22.5q-36 42 -87 90q-7 6 -12.5 9.5t-9.5 5t-8.5 0.5t-6.5 -2t-7.5 -4.5t-7.5 -4.5q-4 -3 -17.5 -14t-25.5 -18t-20 -7q-4 0 -7.5 0.5t-7.5 2t-6 2.5
t-6 3.5t-5.5 4t-6 5t-6.5 5.5q-16 12 -68 64v0q-52 52 -65 68q-1 2 -5 7t-5 6.5t-3.5 5t-3.5 6t-2.5 6t-2 7t-0.5 7.5q0 8 7 20t17.5 25.5t13.5 18.5q1 2 5 7t4.5 7t2 7t0 8.5t-5 9t-9.5 12.5q-49 51 -91 88q-12 10 -22.5 11t-17.5 -4q-20 -8 -65 -43q-10 -7 -14.5 -11.5
t-9 -13.5t-3 -22t7.5 -31q11 -33 60 -109q46 -70 137 -162v0z" />
    <glyph glyph-name="anmoshi" unicode="&#xe70d;" horiz-adv-x="1164" 
d="M0 326q0 -60 42.5 -101.5t103 -41.5t103 41.5t42.5 101t-42.5 101t-103 41.5t-103 -41.5t-42.5 -100.5v0zM873 682q-31 0 -92.5 -39t-121.5 -93t-105 -117.5t-45 -106.5h218q0 26 47 48.5t99 22.5q32 0 67 -39t56.5 -89t21.5 -86q0 -92 63 -137l10 -6h73v214
q0 36 -7.5 79t-22 92t-38.5 94t-55 82t-74.5 59t-93.5 22v0zM436 753q0 -59 43 -100.5t103 -41.5t102.5 41.5t42.5 100.5t-42.5 101t-102.5 42t-103 -42t-43 -101v0zM764 254h-364q-36 0 -73 -35q-18 -19 -36 -70t-36 -73q-30 -36 -73 -36h-109q-26 0 -42 -5t-22 -17.5
t-7.5 -21.5t-1.5 -27v-71h255q16 0 34 9t28 17l10 9l73 107h473v107q0 83 -80 103l-29 4v0z" />
    <glyph glyph-name="pet" unicode="&#xe622;" horiz-adv-x="1128" 
d="M1034 398l-124 271q-24 74 -79.5 119.5t-124.5 45.5h-301q-73 0 -131.5 -52.5t-78.5 -133.5l-114 -250q-31 -69 -12 -143.5t77 -111.5q22 -14 48 -19q20 -83 78.5 -136t132.5 -53h301q74 0 132.5 53t78.5 135q28 5 52 20q58 37 77 111.5t-12 143.5v0zM170 197
q-39 25 -52 75.5t8 96.5l60 130v-304v-3v-3q-9 4 -16 8v0zM874 195q0 -82 -49 -140.5t-119 -58.5h-301q-69 0 -118.5 58.5t-49.5 140.5v379q0 82 49.5 140.5t118.5 58.5h301q70 0 119 -58.5t49 -140.5v-379zM997 272q-13 -50 -52 -75q-9 -5 -20 -9q0 1 0.5 3.5t0.5 3.5v312
l62 -138q21 -46 9 -97v0zM339 528q-21 0 -36.5 -18t-15.5 -43.5t15.5 -43t37 -17.5t36.5 17.5t15 43t-15 43.5t-37 18v0zM772 528q-21 0 -36 -18t-15 -43.5t15 -43t36.5 -17.5t36.5 17.5t15 43t-15 43.5t-37 18v0zM672 147q-35 0 -60.5 30t-25.5 72q0 5 -1 10q29 21 29 60
q0 28 -17 48.5t-41 20.5t-41 -20.5t-17 -48.5q0 -39 29 -60q-2 -5 -2 -10q0 -42 -25 -72t-61 -30q-10 0 -17.5 -9t-7.5 -21.5t7.5 -21.5t17.5 -9q37 0 67.5 21t49.5 56q18 -35 49 -56t67 -21q11 0 18.5 9t7.5 21.5t-7.5 21.5t-18.5 9v0z" />
    <glyph glyph-name="zuliao-copy" unicode="&#xe601;" 
d="M181.5 641q8.5 3 12 16t-1 28t-13.5 23t-17.5 4.5t-11.5 -16.5t1 -27.5t13 -22.5t17.5 -5zM239.5 668.5q9.5 3.5 13 18t-1 31t-14.5 25.5t-19.5 5.5t-13 -18t1.5 -31t14.5 -25.5t19 -5.5zM382.5 706q12.5 5 17 24t-1.5 41.5t-19.5 34.5t-26 6.5t-17 -24.5t1.5 -41
t19.5 -34t26 -7zM131 607q8 3 10.5 15t-1 25t-11.5 20.5t-16 4.5t-10.5 -15t1 -25t11.5 -20.5t16 -4.5zM294.5 695.5q9.5 3.5 12.5 18t-1.5 31t-14.5 25.5t-19.5 5t-13 -18t1.5 -31t15 -25.5t19.5 -5zM300 656q-37 -24 -74 -24q-5 -1 -14 -3t-31 -12t-38 -23.5t-27.5 -40
t-7.5 -59.5q24 -88 83 -224q3 -7 6.5 -18t7.5 -35.5t1 -38.5q0 -5 0.5 -13.5t4.5 -31.5t11.5 -41.5t24 -35.5t38.5 -22q4 -2 9.5 -4t20.5 -4t28 1t27 16t21 37q3 1 7 4.5t12 15.5t10.5 25.5t-4 36.5t-25.5 48q-3 8 -7 22.5t-9.5 56t-2.5 80.5q2 33 23.5 96t25.5 86
q4 26 5.5 51t1.5 39t1 15q-6 9 -14 16t-23 13t-39 -1t-53 -28zM429 656l3 -6q-2 7 -3 6zM783.5 579q9.5 -4 19 5t14 25.5t1 31t-12.5 18.5t-19 -5t-14.5 -25.5t-1 -31t13 -18.5zM595 560q1 3 3 7q-1 2 -2 -2q-1 -2 -1 -5zM730 606q9 -4 19 5t14.5 25.5t1 31t-12.5 18.5
t-19 -5t-14.5 -25.5t-1 -31t12.5 -18.5zM840.5 551.5q8.5 -3.5 17 4.5t12.5 23t1 28t-11.5 16.5t-17 -4.5t-12.5 -23t-1 -28t11.5 -16.5zM797 542q-16 0 -34 6t-28 12l-10 6q-29 21 -52.5 28.5t-38.5 1.5t-23 -13t-13 -16q0 -2 0.5 -16t2 -39t5.5 -50q3 -24 24 -86.5
t24 -95.5q1 -19 1 -36.5t-2 -33.5t-4 -29.5t-4.5 -24.5t-5 -19t-3.5 -12.5t-1 -3.5q-19 -26 -25 -47.5t-3.5 -34t10 -22.5t11.5 -12.5t7 -4.5v0q7 -23 20.5 -37.5t26.5 -18.5t28 -3.5t20.5 1.5t8.5 2v0q22 6 38 23t23 35.5t11.5 41t5 31.5t0.5 14q-2 10 -1.5 21.5t3 24
t5 22.5t5 17l2.5 7q26 60 46.5 116.5t28 81t7.5 25.5q11 91 -82 128zM907.5 582.5q-7.5 3.5 -15.5 -4t-11.5 -21t-1 -25t10 -14.5t15.5 4t12 20.5t1 25t-10.5 15zM643.5 616.5q12.5 -5.5 25.5 6.5t19 34t1.5 41.5t-17 24.5t-25.5 -7t-19 -34t-1.5 -41t17 -24.5z" />
    <glyph glyph-name="xiayibu" unicode="&#xe61c;" 
d="M265 -14q-8 -9 -8 -21.5t8.5 -21t21 -8.5t21.5 8l416 417q9 9 9 23t-9 23l-416 416q-9 9 -21.5 9t-21 -9t-8.5 -21.5t8 -21.5l397 -396z" />
    <glyph glyph-name="jingdian" unicode="&#xe6e2;" 
d="M568 -59l-6 24q-66 218 -150 389q135 379 164 418q10 13 21 24t28 20t34 11t38 -8t41 -32t42.5 -65t42.5 -103q54 -163 101 -332.5t66 -257.5l20 -88h-442zM747 664q-29 71 -56.5 95t-55.5 8q-17 -10 -41 -73t-39.5 -118t-15.5 -58q34 28 65 31q13 1 31 -12.5t29 -27.5
l12 -14q0 3 2 7.5t7.5 16.5t11.5 21t14.5 15.5t16.5 6.5q12 -1 31 -10.5t32 -18.5l12 -9q-16 43 -56 140zM511 -59l-487 2q104 263 136 352q84 239 174 99q37 -57 76 -151.5t60 -157t21 -65.5zM314 314q-30 73 -61 55q-9 -6 -21.5 -39t-20.5 -64l-8 -31q18 16 34 17
q7 1 17 -6.5t16 -14.5l6 -8q1 4 3.5 10.5t10 16.5t14 9.5t16.5 -5.5t17 -10l7 -5q-9 23 -30 75z" />
    <glyph glyph-name="fanhui" unicode="&#xe668;" 
d="M672 -16q-20 0 -34 14l-352 352q-14 14 -14 34t14 34l352 352q14 14 34 14t34 -14t14 -34t-14 -34l-318 -318l318 -318q14 -14 14 -34t-14 -34t-34 -14z" />
    <glyph glyph-name="star" unicode="&#xe6c9;" 
d="M552 165q-23 13 -56.5 13t-57.5 -13l-56 -29q-46 -25 -73 -5t-18 71l11 62q4 27 -6.5 58.5t-28.5 50.5l-46 44q-37 37 -27 68.5t62 38.5l63 9q26 4 53 24t39 43l28 57q23 47 56.5 47t56.5 -47l28 -57q11 -24 38.5 -43.5t53.5 -23.5l62 -9q52 -7 62.5 -39t-27.5 -68
l-45 -44q-19 -19 -29.5 -50.5t-5.5 -58.5l10 -62q9 -52 -18 -71.5t-73 5.5z" />
    <glyph glyph-name="zhoubianyou" unicode="&#xe613;" 
d="M936 56q-21 -38 -64 -38h-750q-21 0 -31.5 7.5t-19.5 26.5t-6 43t15 42l165 195q33 40 69.5 41t63.5 -32l66 -76q34 -31 60 -31q24 0 52 50l100 151q21 37 61 37q45 0 66 -37l153 -305q21 -37 0 -74zM279 704q49 0 83.5 -34.5t34.5 -83t-34.5 -83t-83.5 -34.5t-83.5 34.5
t-34.5 83t34.5 83t83.5 34.5v0z" />
    <glyph glyph-name="ktv" unicode="&#xe614;" 
d="M477 292q56 -31 105 -37l-191 -275q-15 -21 -42.5 -22.5t-45.5 11.5l-31 18q-21 12 -32.5 35.5t-1.5 46.5l140 307q28 -45 99 -84zM760 361q-53 -62 -116 -66l-3 1q-21 -5 -61 7t-84 38q-46 28 -76 56.5t-35 51.5l-3 1q-26 57 -3 131q62 -82 168 -144q109 -64 213 -76z
M805 427q-3 -7 -12 -20q-98 3 -220 74q-120 70 -172 153q8 17 12 24q34 61 87 92t110.5 28.5t112.5 -35.5q83 -49 107.5 -135.5t-25.5 -180.5z" />
    <glyph glyph-name="feijipiao" unicode="&#xe625;" 
d="M869 728q-13 12 -31 18t-43 0t-50 -28l-142 -143q-195 56 -306 76q-58 10 -82 -13q-7 -7 -26 -24t-34.5 -30.5l-15.5 -13.5q250 -136 266 -145q14 -8 16 -18.5t-10 -23.5l-37 -37l-42 -42l-21 -21q-21 -21 -45 -13l-76 24q-17 8 -35 1t-26 -24q-7 -16 0 -30t24 -31
l199 -200q35 -34 61 -23q17 8 24 26t-1 35q-10 44 -23 75q-10 23 12 44l90 90q18 17 35.5 14t26.5 -19q135 -260 135 -256q61 45 77 62q12 13 13.5 30t-3.5 40q-9 48 -29.5 130.5t-36.5 142t-16 58.5l143 143q25 26 31 52t-1 43.5t-21 30.5z" />
    <glyph glyph-name="star1" unicode="&#xe72a;" 
d="M719 18q-14 0 -26 7l-179 88l-181 -88q-13 -7 -29.5 -6t-29.5 10q-28 20 -22 55l37 191l-142 131q-26 25 -15 58t45 38l198 36l88 178q16 31 51 31t50 -31l88 -178l198 -35q34 -5 45 -38t-14 -57l-143 -133l36 -191q6 -34 -22 -55q-15 -11 -33 -11v0v0zM719 18z" />
    <glyph glyph-name="jiuba14" unicode="&#xe621;" 
d="M700 -119h-499q-24 0 -41 15.5t-17 36.5v578q0 11 7.5 18.5t18.5 7.5t18.5 -7.5t7.5 -18.5v-577q2 -2 6 -2h499q5 0 7 2v577q0 11 7 18.5t18 7.5t18.5 -7.5t7.5 -18.5v-578q1 -21 -16.5 -36.5t-41.5 -15.5zM700 666zM729 39v51q69 0 118 49t49 118t-49 118t-118 49v51
q91 0 154.5 -64t63.5 -154q0 -91 -63.5 -154.5t-154.5 -63.5zM791 500zM311.5 60q-10.5 0 -18 7.5t-7.5 18.5v301q0 11 7.5 18.5t18 7.5t18 -7.5t7.5 -18.5v-302q0 -10 -7.5 -17.5t-18 -7.5zM450.5 60q-10.5 0 -18 7.5t-7.5 18.5v301q0 11 7.5 18.5t18 7.5t18 -7.5
t7.5 -18.5v-302q0 -10 -7.5 -17.5t-18 -7.5zM589.5 60q-10.5 0 -18 7.5t-7.5 18.5v301q0 11 7.5 18.5t18.5 7.5t18 -7.5t7 -18.5v-302q0 -10 -7.5 -17.5t-18 -7.5zM811 516l-714 2l-5 20q-6 23 -6 44q0 63 43.5 112t111.5 65q28 51 84.5 81.5t124.5 30.5q74 0 133.5 -36
t84.5 -96q66 -2 112.5 -48.5t46.5 -110.5q0 -23 -9 -46zM138 569l636 -2q1 4 1 13q0 45 -33.5 76.5t-79.5 31.5q-8 0 -11 -1l-21 -2l-6 21q-14 49 -63.5 81.5t-111.5 32.5q-56 0 -102.5 -26.5t-65.5 -69.5l-6 -12l-13 -2q-54 -9 -89 -45.5t-35 -83.5v-3.5v-4v-4.5z" />
    <glyph glyph-name="xican" unicode="&#xe642;" 
d="M744 620q-26 0 -51 -9q-72 78 -177 78q-103 0 -175 -75q-21 6 -43 6q-65 0 -111 -47t-46 -113t43.5 -110.5t111.5 -44.5l-1 -213q0 -19 14 -34t33 -15h358q18 0 31.5 16.5t13.5 35.5v175q-26 0 -50.5 6.5t-41 15.5t-29 17.5t-17.5 14.5l-6 6q70 -29 147 -30h1
q63 2 107.5 48.5t44.5 111.5q0 67 -46 113.5t-111 46.5z" />
    <glyph glyph-name="shenghuofuwu" unicode="&#xe654;" horiz-adv-x="1028" 
d="M1011 449l-449 377q-20 17 -48 17t-48 -17l-449 -377q-20 -17 -15.5 -28.5t30.5 -11.5h82v-417q0 -28 20 -47.5t47 -19.5h684q27 0 46.5 19.5t19.5 47.5v417h66q26 0 30 11.5t-16 28.5zM672.5 396q18.5 0 31.5 -13t13 -31.5t-13 -32t-31.5 -13.5t-32 13.5t-13.5 32
t13.5 31.5t32 13zM355 396q19 0 32 -13t13 -31.5t-13 -32t-32 -13.5t-32 13.5t-13 32t13 31.5t32 13zM514 14q-97 0 -175 55.5t-110 143.5h46q31 -70 95.5 -113t143.5 -43t143.5 43t95.5 113h46q-32 -88 -110 -143.5t-175 -55.5z" />
    <glyph glyph-name="huoguo" unicode="&#xe644;" 
d="M103 463h826v-37h-826v37zM707 112h-382l-45 -112h471zM141 398q11 -81 61.5 -148t126.5 -107h373q77 40 127 107t62 148h-750zM77 323q-8 0 -13 -5.5t-5 -13t5 -13t13 -5.5h73q-10 18 -18 37h-55v0zM955 323q7 0 12.5 -5.5t5.5 -13t-5.5 -13t-12.5 -5.5h-73q10 18 17 37
h56v0zM523 522l-21 16q13 18 19 33t5 22.5t-2 15.5q-4 16 -21 43q-20 32 -22 53q-6 40 34 81l18 -18q-30 -32 -27 -60q2 -15 19 -43q19 -30 24 -50q2 -12 3 -23.5t-6 -29.5t-23 -40zM426 488l-21 16q13 17 19 31t5 21l-2 14q-4 15 -20 40q-21 30 -23 50q-6 39 34 77l18 -18
q-30 -30 -27 -55q2 -15 19 -40q19 -29 24 -48q2 -11 3 -22t-6.5 -28t-22.5 -38zM620 488l-21 16q14 17 19.5 31t4.5 21l-2 14q-4 15 -20 40q-20 30 -23 50q-6 39 34 77l18 -18q-30 -30 -27 -55q2 -15 19 -40q19 -29 24 -48q2 -11 3 -22t-6 -28t-23 -38v0z" />
    <glyph glyph-name="zizhucan" unicode="&#xe665;" 
d="M818 216l-626 164q-7 1 -11.5 5.5t-5.5 7.5l-1 4q35 127 145 199t239 54l6 23l-1 1q-36 9 -35 15v3q7 24 35.5 35.5t62.5 2.5t53 -33t13 -49l-1 -3q-2 -5 -38 5h-2l-6 -23q121 -49 180 -166t25 -244l-2.5 -2.5t-9.5 -3.5t-20 5zM273 274q5 14 13.5 21t14.5 7h6
q422 -107 429 -108q3 -1 5.5 -4t1 -6t-6.5 -3h-446q-12 0 -21.5 9t-13.5 24q-3 12 1 20t13 6q4 -1 4.5 0t0 4t-1.5 6.5t-1 10t2 13.5zM863 56h-708q-15 0 -25.5 11t-10.5 25.5t10.5 25t25.5 10.5h708q15 0 25.5 -10.5t10.5 -25t-10.5 -25.5t-25.5 -11z" />
    <glyph glyph-name="xiayibu1" unicode="&#xe67b;" 
d="M285 48v0q-9 -9 -9 -21.5t9 -21.5t21.5 -9t21.5 9l349 351q10 10 9 24q1 15 -9 25l-349 350q-9 9 -21.5 9t-21.5 -9v0q-9 -9 -9 -21.5t9 -21.5l330 -332l-330 -332v0z" />
    <glyph glyph-name="jiehun" unicode="&#xe6e3;" 
d="M602 305l-166 -157q-7 -7 -14 0l-167 157q-40 -57 -40 -126q0 -89 62.5 -152.5t151 -63.5t150.5 63.5t62 152.5q0 69 -39 126v0zM305 486h-134l246 -295zM817 509l-149 -142q63 -83 63 -188q0 -127 -88.5 -217t-214 -90t-214 90t-88.5 217q0 105 63 188l-150 142
q-9 8 1 15l259 209q5 4 11 4h238q6 0 11 -4l258 -206q4 -3 4 -8.5t-4 -9.5v0zM898 727l-44 -81l-43 81l-80 44l80 44l43 81l44 -81l80 -44z" />
    <glyph glyph-name="shaokao" unicode="&#xe61b;" 
d="M382 673.5q0 31.5 -21 54.5t-51 27v76h-22v-76q-31 -4 -51.5 -27t-20.5 -54.5t20.5 -55t51.5 -27.5v-20q-31 -4 -51.5 -27t-20.5 -54.5t20.5 -55t51.5 -27.5v-20q-31 -4 -51.5 -27t-20.5 -54.5t20.5 -55t51.5 -27.5v-286h22v286q30 4 51 27.5t21 55t-21 54.5t-51 27v20
q30 4 51 27.5t21 55t-21 54.5t-51 27v20q30 4 51 27.5t21 55zM595 673.5q0 31.5 -20.5 54.5t-51.5 27v76h-22v-76q-31 -4 -51.5 -27t-20.5 -54.5t20.5 -55t51.5 -27.5v-20q-31 -4 -51.5 -27t-20.5 -54.5t20.5 -55t51.5 -27.5v-20q-31 -4 -51.5 -27t-20.5 -54.5t20.5 -55
t51.5 -27.5v-286h22v286q31 4 51.5 27.5t20.5 55t-20.5 54.5t-51.5 27v20q31 4 51.5 27.5t20.5 55t-20.5 54.5t-51.5 27v20q31 4 51.5 27.5t20.5 55zM808 489.5q0 31.5 -20.5 54.5t-51.5 27v20q31 4 51.5 27.5t20.5 55t-20.5 54.5t-51.5 27v76h-22v-76q-30 -4 -51 -27
t-21 -54.5t21 -55t51 -27.5v-20q-30 -4 -51 -27t-21 -54.5t21 -55t51 -27.5v-20q-30 -4 -51 -27t-21 -54.5t21 -55t51 -27.5v-286h22v286q31 4 51.5 27.5t20.5 55t-20.5 54.5t-51.5 27v20q31 4 51.5 27.5t20.5 55z" />
    <glyph glyph-name="wanfan" unicode="&#xe647;" 
d="M941 177h-55q-2 52 -39 88t-88 37q-22 47 -74.5 80t-104.5 33v0q-30 0 -59 -9q-13 18 -38 31t-48 13h-3q-12 69 -42 115q3 4 3 8v57q0 24 -17.5 41.5t-41.5 17.5h-27q0 66 -10 107q-1 6 -6 10t-11 4v0h-29v0q-6 0 -11 -4t-6 -10q-10 -41 -10 -107h-27q-24 0 -41.5 -17.5
t-17.5 -41.5v-57q0 -4 2 -8q-50 -77 -50 -226q0 -78 30 -162h-39v0q-7 0 -12 -5t-5 -12q0 -14 22.5 -46t44.5 -57q75 -84 129 -84h503q54 0 128 84q23 25 45 57t22 46q0 7 -5 12t-12 5zM851 177h-33q-2 24 -20.5 40.5t-42 16.5t-41.5 -16.5t-21 -40.5h-14v1q0 21 -8 40
q10 18 35 34t50 16q38 0 65.5 -26.5t29.5 -64.5zM783 177h-55v6q0 11 8 19.5t19.5 8.5t20 -8.5t8.5 -19.5q0 -3 -1 -6zM580 381v0q40 0 81.5 -24.5t60.5 -58.5q-16 -4 -31 -13q-16 26 -48.5 44t-62.5 18v0h-1q-24 0 -52 -12.5t-44 -30.5q-11 12 -24 23q20 22 55.5 38
t65.5 16v0zM578 280h-1q-14 0 -33 -6.5t-30 -16.5l-10 18q12 16 34 27t42 11v0v0q23 0 47.5 -14.5t35.5 -34.5q-7 -7 -13 -15q-12 13 -33.5 22t-38.5 9v0zM645 178v-1h-135v1q0 23 16 42t38 24q7 1 14 1q27 0 47 -19.5t20 -47.5zM476 177h-11q-2 53 -40 89t-90.5 36t-90 -36
t-39.5 -89h-34q2 58 39.5 101.5t93.5 54.5q15 3 31 3v0q48 0 93 -31.5t61 -76.5q-13 -23 -13 -50v-1zM335 234q-24 0 -42 -16.5t-20 -40.5h-34q2 38 30 64.5t65.5 26.5t66 -26.5t30.5 -64.5h-34q-2 24 -20 40.5t-42 16.5zM362 177h-55q2 10 10 16.5t17.5 6.5t18 -6.5
t9.5 -16.5zM488 392q-34 -17 -58 -46q-30 16 -63 22q6 17 23.5 31t35.5 16q7 1 14 1q12 -1 26 -8t22 -16zM265 775v0q6 -36 7 -86h-13q1 50 6 86zM173 630q0 9 7 16t17 7h137q10 0 16.5 -7t6.5 -16v-39h-184v39zM177 555h177q31 -41 43 -112q-21 -8 -40.5 -29.5t-24.5 -43.5
q-18 0 -35 -3q-56 -11 -97.5 -50.5t-56.5 -94.5q-17 62 -17 117q0 148 51 216zM138 186l-1 -9h-4zM862 76q-62 -68 -99 -68h-503q-37 0 -99 68q-31 34 -52 67h805q-23 -36 -52 -67z" />
    <glyph glyph-name="shouji" unicode="&#xe605;" 
d="M683 848h-341q-32 0 -54.5 -22.5t-22.5 -54.5v-775q0 -32 22.5 -54.5t54.5 -22.5h341q32 0 54.5 22.5t22.5 54.5v775q0 32 -22.5 54.5t-54.5 22.5zM466 786h93q6 0 10.5 -4.5t4.5 -11t-4.5 -11t-10.5 -4.5h-93q-7 0 -11.5 4.5t-4.5 11t4.5 11t11.5 4.5zM512 -50
q-19 0 -32.5 13.5t-13.5 33t13.5 33t33 13.5t33 -13.5t13.5 -33t-13.5 -33t-33.5 -13.5v0zM729 74h-433v619h433v-619z" />
    <glyph glyph-name="icon-yxj-takeout" unicode="&#xe61f;" 
d="M953 297h-60q-8 0 -14 -6t-6 -14.5t6 -14.5t14 -6h60q9 0 14.5 6t5.5 14.5t-5.5 14.5t-14.5 6zM891 230h-10q-10 0 -17.5 6.5t-7.5 16.5l-6 70h13q8 0 14 6t6 14t-6 14.5t-14 6.5h-16l-2 25h88q8 0 13.5 6t5.5 14.5t-5.5 14.5t-13.5 6h-339q-9 0 -16 -5.5t-9 -14.5
q-12 -63 -18 -97l-1 -3q-6 -31 -29.5 -53.5t-56.5 -26.5h-120q-27 0 -38 24q-40 98 -40 184v153q0 10 10 10l2 1q28 1 44 27h37q6 0 10.5 4.5t4.5 11t-4.5 11t-10.5 4.5h-30q-2 16 -15 30t-31 16l-127 15q-11 2 -19 -6t-8 -19v-76q0 -11 7.5 -18.5t18.5 -6.5l18 1q5 0 8 -4
t1 -10l-97 -258q-5 -14 -17 -21q-42 -25 -65 -67q-5 -11 -1 -21.5t15 -14.5l41 -14q-5 -17 -5 -34q0 -44 31 -75t74.5 -31t75 31t31.5 75v1h373v-1q0 -44 31 -75t75 -31t75 31t31 75v1h44q17 0 28 11.5t10 28.5q-1 16 -13 26.5t-28 10.5zM158 82q-29 0 -49.5 20.5t-20.5 50
t20.5 50t49.5 20.5t50 -20.5t21 -50t-21 -50t-50 -20.5zM743 82q-29 0 -50 20.5t-21 50t21 50t50 20.5t50 -20.5t21 -50t-21 -50t-50 -20.5zM1005 558h-407q-11 0 -17.5 -8t-6.5 -19v-50q0 -10 6.5 -17.5t17.5 -7.5h270q8 0 14 6t6 14.5t-6 14.5t-14 6h-23v21h160
q8 0 13.5 6t5.5 14t-5.5 14t-13.5 6z" />
    <glyph glyph-name="xiayibu2" unicode="&#xe604;" 
d="M380 93q-13 0 -21.5 9t-8.5 21.5t9 21.5l244 238l-244 239q-9 9 -9 21.5t8.5 21t21 9t21.5 -8.5l265 -260q9 -9 9 -21.5t-9 -21.5l-265 -260q-9 -9 -21 -9v0z" />
    <glyph glyph-name="kuaican" unicode="&#xe684;" 
d="M681 801v60h-221q-21 0 -38.5 -19t-28 -50t-16 -53.5t-8.5 -44.5h-351l42 -681h406l44 681h-81q1 28 9 54.5t15 39.5l7 13h221zM314 507h-240l-5 146h291zM454 507h-81l43 146h44zM876 436h-263v0q-43 0 -73 -30.5t-30 -72.5v0v-9h469v9v0q0 42 -30.5 72.5t-72.5 30.5z
M510 106q0 -43 30.5 -73t72.5 -30h263v0q42 0 72.5 30t30.5 73v34h-469v-34zM918 295q-27 0 -45 -20q-8 8 -21 14t-24 6q-24 0 -42 -16q-18 16 -42 16v0q-27 0 -45 -20q-7 8 -20.5 14t-24.5 6v0v0q-12 0 -25 -6t-21 -14q-7 8 -20.5 14t-24.5 6q-25 0 -43 -18t-18 -43.5
t18 -43t43 -17.5q27 0 45 20q19 -20 46 -20t45 20q8 -9 21 -14.5t24 -5.5v0q24 0 42 16q17 -16 42 -16q11 0 24 5.5t20 13.5q8 -8 21 -13.5t24 -5.5q26 0 44 17.5t18 43.5v0q0 25 -18 43t-43 18v0zM0 -26q9 -30 33.5 -48.5t55.5 -18.5h846q31 0 55.5 18.5t33.5 48.5h-1024z
" />
    <glyph glyph-name="liren" unicode="&#xe615;" 
d="M603 590q0 2 -4.5 9t-15.5 20t-25 24q-60 53 -139 53h-9q-82 -4 -141 -53q-8 -7 -15.5 -14t-12 -13t-8 -11t-5.5 -8l-2 -3q-5 -7 1 -16l136 -173l-35 -298v-5q0 -11 18 -19q22 -11 62 -11q69 0 90 21q4 5 4 13l-32 297l132 171q4 5 1 16zM472 112q-29 -10 -66 -10t-49 8
l27 232h64zM443 416q-3 -6 -3 -11l3 -34h-56l5 35q0 8 -3 12l-133 169q8 14 30 34q49 41 124 46h8q68 0 118 -45q20 -18 34 -38zM786 430h-20v242q0 10 -9 14q-10 4 -16 -3q-30 -29 -55 -35q-16 -4 -29 -18t-17.5 -24.5t-4.5 -13.5v-162h-22q-6 0 -10.5 -4t-4.5 -10l-1 -326
q0 -7 4.5 -11.5t9.5 -4.5h175q6 0 10 4t4 10v328q0 6 -4 10t-10 4zM664 586q10 29 29 33q18 4 43 23v-208h-74v152h2zM771 104h-145l1 298h144v-298z" />
    <glyph glyph-name="youhuiquan" unicode="&#xe60a;" horiz-adv-x="1483" 
d="M0 613q0 43 14 63q15 18 63 18h202v-807h-86q-47 0 -69.5 0.5t-46.5 0.5q-43 -2 -60 15q-17 16 -17 61v233q0 17 6 26q6 10 23 13q6 0 17 5q12 6 22 15q12 12 19 28q8 17 8 41q0 36 -20 57q-20 22 -42 25q-17 3 -24.5 10.5t-7.5 24.5v171h-1zM131 766v43q0 32 25 60
q24 27 52 27h217v-130h-294zM1416 416q-13 -3 -18 -14q-6 -10 -6 -23q0 -12 6 -25q5 -12 18 -17q13 -6 20 -19q7 -15 7 -31q1 -15 -4 -30q-4 -15 -14 -21q-31 -20 -31 -44.5t31 -47.5q7 -6 12 -18q6 -14 6 -26.5t-6 -22.5q-6 -9 -22 -9h-85q-10 0 -10 2q-1 2 2 5q1 1 8 9
q3 4 8 12q8 22 0 39q-9 16 -27 27q-14 7 -18 21q-6 14 -5 28q1 16 6 26q4 11 14 16q12 4 19 18q6 12 6 27q0 12 -5 27q-5 13 -14 17q-13 7 -20 19q-7 13 -7 29q0 17 6 32t21 25q9 6 16 18q5 9 7 24q1 12 -5 25q-6 12 -20 20q-15 8 -23 24q-7 15 -7 31t7 31t19 23
q27 14 29 39q3 27 -4 46q-5 17 -19 29q-14 13 -36 13h-756v126h888q11 0 18 -8q9 -9 11 -20t-2 -23q-3 -12 -15 -21q-10 -9 -16 -21q-7 -12 -8 -26q-1 -13 4 -28q5 -14 17 -20q18 -10 26 -27q9 -17 9 -33q0 -17 -9 -32q-8 -15 -24 -21q-17 -7 -25 -18.5t-8 -26.5
q-1 -14 6 -28q8 -15 23 -24q16 -10 23 -25q7 -17 6 -33t-8 -29q-9 -14 -22 -16zM1211 440q-19 -4 -29 -18t-12 -29q0 -14 8 -29q9 -14 26 -21t24 -19q8 -14 8.5 -28t-6 -27.5t-18.5 -19.5q-40 -20 -41 -47q-2 -27 30 -44q13 -5 23 -20q9 -14 9 -29q1 -15 -5 -27t-21 -17
q-19 -5 -29 -18t-11 -28q0 -14 8 -28.5t28 -24.5q11 -6 18 -20q6 -15 4 -27q-2 -14 -8 -23q-7 -11 -20 -11h-825v809h834q14 0 20 -10q7 -11 8 -24t-6 -26q-5 -12 -20 -18q-13 -4 -23 -16q-9 -11 -10 -25q-2 -14 6 -27q7 -13 27 -19q13 -6 23 -20q9 -14 9 -26q1 -14 -6 -26
q-7 -11 -23 -17zM831 332q-8 0 -16 2t-5 10q1 0 3 3t5.5 8t7.5 11q7 11 30 41q5 8 15 21.5t15 19.5q17 23 18 25q8 12 -10 30q-5 5 -13 10t-17 10q-13 4 -18 1q-6 -3 -13 -14q-13 -20 -16 -24q-4 -6 -13 -19t-14 -21q-11 -17 -26 -37q-11 -16 -13 -21q-4 -7 -12 -5
q-9 2 -12 9q-2 3 -14 19q-14 16 -27 34q-11 17 -28 37q-2 3 -18 23q-14 28 -30 18q-13 -8 -20 -14q-8 -7 -16 -12q-16 -12 -5 -30q27 -32 48 -59q12 -15 33 -44q5 -6 9 -11.5t6.5 -9t3.5 -3.5q3 -7 -6 -7h-19h-23q-17 -1 -28 0q-13 0 -21 -6q-7 -7 -4 -16q1 -7 1 -20v-20
q0 -8 5 -8q3 -1 11 -1h92q19 0 19 -8v-31q0 -8 -3 -8h-106q-9 2 -12 -5t-5 -14q-1 -9 0 -16q2 -7 2 -12q0 -21 20 -21h94q9 0 9 -3q2 -2 2 -10q2 -11 0 -30v-11.5t-0.5 -10t-0.5 -5.5q0 -18 21 -18h50q13 0 13 8v65q0 16 14 16h14q16 0 25 1t26 1h21q22 0 22 15v36
q0 15 -16 15h-91q-16 -3 -16 7q0 7 -0.5 11.5t-0.5 13.5q0 7 5 10q8 4 12 4h93q16 0 16 11v39q0 5 -5 13q-6 6 -14 6z" />
    <glyph glyph-name="tubiaozhizuomoban" unicode="&#xe61e;" 
d="M416 797h-268q-20 0 -34.5 -14t-14.5 -34v-269q0 -20 14.5 -34t34.5 -14h268q20 0 34.5 14t14.5 34v269q0 20 -14.5 34t-34.5 14zM879 797h-268q-20 0 -34.5 -14t-14.5 -34v-269q0 -20 14.5 -34t34.5 -14h268q20 0 34.5 14t14.5 34v269q0 20 -14.5 34t-34.5 14zM416 334
h-268q-20 0 -34.5 -14t-14.5 -34v-269q0 -20 14.5 -34.5t34.5 -14.5h268q20 0 34.5 14.5t14.5 34.5v269q0 20 -14.5 34t-34.5 14zM879 334h-268q-20 0 -34.5 -14t-14.5 -34v-269q0 -20 14.5 -34t34.5 -15h268q20 0 34.5 14.5t14.5 34.5v269q0 20 -14.5 34t-34.5 14zM855 42
h-220v219h220v-219v0z" />
    <glyph glyph-name="zhuangxiu" unicode="&#xe636;" horiz-adv-x="1070" 
d="M934 238h-1q-5 0 -4 2l-39 15l85 102q2 2 6 4.5t6 4.5t2 6q0 3 1 8t1 9t-2 6l-410 405q-14 14 -21.5 14t-20.5 -14l-86 -81l-7 33l-8 9q-38 34 -55 40q-4 1 -7 1q-11 0 -26 -15l-131 -132q-16 -15 -16 -37q0 -1 1 -3q1 -24 20 -43l210 -211l2 -3q15 -18 16 -41t-16 -42
l-100 -101l-15 13l-33 40q-1 0 -48 -55t-94 -110.5l-47 -55.5q34 -35 70 -69q1 0 3 -1t3 -2.5t0 -2.5l201 193l-12 12.5t-23.5 25l-11.5 12.5l81 92q20 20 27 45.5t-9 46.5l-204 208q-19 20 -24.5 44.5t11.5 44.5l143 148q4 3 13 3t20.5 -1.5t13.5 -1.5q8 0 11.5 -3t9 -12
t12.5 -16q1 -1 8 -5.5t9 -5.5l2 -42l-9 -14l-56 -42q-3 -4 -3.5 -6.5t0 -5t-0.5 -5.5q-2 -13 4 -20l418 -439q5 -5 13 -5q12 0 26 14l47 65l50 -23h-6v0zM413 143q5 -5 5 -13t-5 -13l-233 -231q-6 -3 -13 -3h-1q-8 0 -14 6l-110 110q-5 5 -4.5 13.5t5.5 13.5l230 229
q6 6 14 6v0q7 0 13 -6l38 -37l75 75q28 29 7 54l-211 212q-10 9 -17.5 25t-8.5 30v4q0 12 6 27t15 23l130 132q21 21 40 21v0q6 0 12 -2q22 -7 63 -45l2 -2l72 72q14 15 34.5 15t35.5 -15l426 -428q14 -14 14 -34.5t-14 -35.5l-72 -71l17 -17q5 -5 3 -16q0 -9 -6 -15
q-8 -8 -19 -8q-4 0 -8 1l-5 3l-17 16l-56 -56q-19 -20 -39 -20q-15 0 -26 11l-439 441q-10 10 -10 26v7q3 16 18 32l56 56l-3 3l-5 5q-19 20 -30 20q-9 0 -14 -6l-112 -112q-13 -12 -13.5 -29t11.5 -29l208 -208q23 -25 23 -58t-23 -56l-84 -84l39 -39v0zM77 16l209 212
l96 -97l-209 -212l-96 97v0zM173 -54l183 185l-70 70l-183 -185zM558 822q12 0 21 -8l410 -412q8 -9 8 -21.5t-9 -21.5l-132 -172q-4 -3 -21.5 -8t-23.5 -5q-4 0 -8.5 4t-9.5 10t-7 8l-412 413q-8 10 -2.5 38.5t14.5 38.5l151 127q9 9 21 9v0zM558 803v0q-5 0 -8 -3
l-148 -148q-8 -9 0 -17l409 -411q4 -3 9 -3t8 3l147 148q8 9 0 17l-409 411q-3 3 -8 3z" />
    <glyph glyph-name="dingdan" unicode="&#xe606;" 
d="M915 34l-176 137v0h-1q-17 14 -7 33q8 25 8 52q0 77 -54.5 131.5t-131.5 54.5t-131.5 -54.5t-54.5 -131.5t54.5 -131.5t131.5 -54.5q66 0 118 42q6 8 16.5 9t18.5 -5l3 -3l166 -130q11 -8 24 -6.5t21 12t6.5 23.5t-11.5 22zM553 130q-52 0 -89 37t-37 89.5t37 89.5t89 37
t89.5 -37t37.5 -89.5t-37.5 -89.5t-89.5 -37zM723 181v0l1 -1q0 1 -1 1zM640 -1q-1 0 -3 -1h-415q-26 0 -44.5 18.5t-18.5 44.5v647q0 26 18.5 44.5t44.5 18.5h485q26 0 44.5 -18.5t18.5 -44.5v-193h1v-2q0 -13 9 -21.5t21 -8.5t21 8.5t9 21.5q0 2 -1 4v191q0 51 -36 87
t-87 36h-485q-51 0 -87 -36t-36 -87v-647q0 -51 36 -87t87 -36h418v1v0q13 0 21.5 9t8.5 21t-8.5 21t-21.5 9zM703 676q0 13 -9 22t-22 9h-418q-13 0 -22 -9t-9 -22t9 -22t22 -9h418q13 0 22 9t9 22zM254 576q-13 0 -22 -9t-9 -21.5t9 -21.5t22 -9h291q13 0 22 9t9 21.5
t-9 21.5t-22 9h-291z" />
    <glyph glyph-name="xxxxxx-" unicode="&#xe609;" 
d="M512 896q-139 0 -257 -68.5t-186.5 -186.5t-68.5 -257t68.5 -257t186.5 -186.5t257 -68.5t257 68.5t186.5 186.5t68.5 257t-68.5 257t-186.5 186.5t-257 68.5zM781.5 114.5q-12.5 -12.5 -29.5 -12.5t-29 13l-211 210l-211 -210q-12 -11 -28 -11q-17 0 -29 12t-12 29
q0 16 11 28l210 211l-210 211q-11 12 -11 28q0 17 12 29t29 12q16 0 28 -11l211 -210l211 210q12 12 28 12q18 0 30 -12t12 -30q0 -16 -12 -28l-210 -211l210 -211q13 -12 13 -29t-12.5 -29.5z" />
    <glyph glyph-name="qinzi" unicode="&#xe62d;" horiz-adv-x="1195" 
d="M433 637q-52 8 -88 48t-32 92q5 53 45 88t91 31q53 -5 88 -46t26 -94q-10 -63 -44.5 -94.5t-85.5 -24.5zM724 286q-14 -1 -30 12q-9 7 -28 24.5t-32.5 30t-32.5 22.5t-33 8t-27.5 -19.5t-22.5 -54.5q-8 -57 0 -111.5t46 -123.5t114 -165q6 -6 5 -16t-11 -11q-7 0 -15 2
t-12 4l-5 3q-15 6 -27.5 14t-29.5 22.5t-26 23t-34.5 34.5t-37.5 37q-32 31 -60 43.5t-49 2.5t-26 -45v-11q1 -84 5 -119q1 -14 -12 -19.5t-22 6.5q-48 61 -82 185.5t-28 292.5q0 38 -36 22q-45 -20 -133 -126q-26 -32 -38 -16q-17 23 26 116q3 5 7.5 14t22 34t37.5 47.5
t52.5 50.5t67.5 47.5t83 32t99 11.5q62 -5 114.5 -29.5t91.5 -64t66 -79t52 -88.5q9 -19 12 -27q1 -6 -2 -11t-9 -6zM916 253q-42 -8 -83.5 13.5t-49.5 60.5t21.5 76.5t69.5 45.5t73.5 -15t42.5 -63.5t-13 -75t-61 -42.5zM1192 278q-15 -29 -99 -86q-17 -11 -31 -32.5
t-17 -40.5q-2 -8 -2 -16.5t0.5 -14.5t3 -18t3.5 -16.5t5.5 -21t5.5 -20.5q19 -76 4 -116q-4 -9 -13 -10t-13 7q-9 21 -13.5 29t-15.5 25t-26 25.5t-35 12.5q-40 3 -59 -21t-20 -66q0 -13 -10 -16t-20 7q-27 27 -39 98q-4 28 -4 60.5t-3 48t-18 26.5q-7 6 -40 16t-68.5 25.5
t-54.5 37.5q-6 7 -3 15t12 9q19 3 66 -1t97.5 -6.5t132.5 5.5q51 7 100 23t95.5 37.5t57.5 24.5q12 5 20 -5t1 -25v0z" />
  </font>
</defs>
</svg>
